<svg xmlns="http://www.w3.org/2000/svg" xmlns:xlink="http://www.w3.org/1999/xlink" version="1.1" id="Layer_1" x="0px" y="0px" width="612px" height="118.97px" viewBox="0 335.863 612 118.97" enable-background="new 0 335.863 612 118.97" xml:space="preserve">
<title>bc-logo</title>
<path fill="#FFFFFF" d="M20.428,335.863v40.855c3.434-3.557,7.545-6.392,12.09-8.338c4.369-1.805,9.032-2.794,13.758-2.918  c10.478-0.089,20.494,4.312,27.515,12.09c7.605,8.604,11.633,19.791,11.256,31.267c0.348,11.424-3.85,22.519-11.673,30.851  c-6.965,7.906-16.979,12.458-27.515,12.507c-4.565,0.017-9.092-0.832-13.341-2.502c-4.545-1.945-8.656-4.78-12.09-8.338v8.755H0  V335.863H20.428z M42.106,384.64c-6.138-0.282-12.087,2.159-16.259,6.67c-4.257,4.816-6.496,11.086-6.253,17.509  c-0.313,6.56,1.929,12.984,6.253,17.927c4.171,4.511,10.121,6.951,16.259,6.67c6.06,0.053,11.842-2.534,15.842-7.087  c4.382-4.769,6.769-11.034,6.67-17.51c0.297-6.494-1.946-12.849-6.253-17.718C54.052,386.823,48.18,384.489,42.106,384.64z"/>
<path fill="#FFFFFF" d="M158.419,367.964h20.845v82.545h-20.845v-8.755c-3.51,3.467-7.602,6.289-12.09,8.338  c-4.238,1.708-8.772,2.558-13.34,2.502c-10.574,0.124-20.656-4.459-27.515-12.507c-7.887-8.292-12.096-19.415-11.673-30.851  c-0.522-11.499,3.524-22.739,11.256-31.267c6.906-7.937,16.998-12.371,27.515-12.09c4.751-0.123,9.465,0.877,13.757,2.918  c4.545,1.946,8.656,4.781,12.09,8.338V367.964z M136.741,384.64c-6.002-0.203-11.792,2.235-15.842,6.67  c-4.257,4.816-6.496,11.086-6.253,17.509c-0.243,6.423,1.997,12.693,6.253,17.51c8.336,8.974,22.37,9.491,31.344,1.154  c0.258-0.24,0.51-0.485,0.756-0.737c4.324-4.942,6.566-11.367,6.253-17.927c0.243-6.423-1.997-12.693-6.253-17.509  C148.722,386.955,142.845,384.544,136.741,384.64z"/>
<path fill="#FFFFFF" d="M194.272,367.964h17.926v10.631c1.699-3.634,4.278-6.787,7.504-9.172c3.051-2.151,6.689-3.315,10.422-3.335  c2.888,0.146,5.72,0.854,8.338,2.084l-6.253,17.926c-1.8-0.977-3.792-1.546-5.837-1.667c-3.545,0.255-6.627,2.526-7.921,5.836  c-2.084,3.752-3.335,11.673-3.335,23.346v37.521h-20.428v-83.17H194.272z"/>
<path fill="#FFFFFF" d="M322.676,384.64l-17.093,9.588c-2.659-3.013-5.927-5.429-9.588-7.087c-3.584-1.409-7.405-2.116-11.256-2.084  c-6.959-0.302-13.739,2.259-18.76,7.087c-4.745,4.735-7.312,11.228-7.087,17.927c-0.224,6.455,2.361,12.689,7.087,17.093  c11.964,9.917,29.623,8.63,40.022-2.919l16.259,11.257c-8.755,11.673-21.262,17.093-37.521,17.093  c-14.591,0-25.847-4.169-34.185-12.924c-8-7.94-12.502-18.745-12.507-30.017c0.005-7.745,2.016-15.358,5.836-22.095  c4.038-6.681,9.797-12.152,16.676-15.842c7.448-3.928,15.76-5.935,24.18-5.836c7.659-0.123,15.236,1.592,22.096,5.003  C313.361,373.796,318.875,378.585,322.676,384.64z"/>
<path fill="#FFFFFF" d="M333.098,335.863h20.428v40.438c3.626-3.211,7.698-5.88,12.091-7.921c3.969-1.631,8.216-2.48,12.507-2.501  c7.781-0.111,15.286,2.89,20.845,8.338c5.002,5.003,7.087,12.09,7.087,21.678v54.613h-20.428v-36.27  c0.215-6.557-0.204-13.118-1.251-19.594c-0.548-2.982-2.182-5.656-4.586-7.504c-2.417-1.751-5.355-2.633-8.338-2.501  c-4.031-0.15-7.947,1.356-10.839,4.169c-3.041,3.135-5.198,7.018-6.254,11.256c-0.666,5.672-0.945,11.383-0.834,17.093v33.352  h-20.428V335.863z"/>
<path fill="#FFFFFF" d="M480.679,367.964h20.845v82.545h-20.845v-8.755c-3.51,3.467-7.603,6.289-12.09,8.338  c-4.238,1.708-8.772,2.558-13.341,2.502c-10.574,0.124-20.656-4.459-27.515-12.507c-7.888-8.292-12.097-19.415-11.674-30.851  c-0.521-11.499,3.524-22.739,11.257-31.267c6.906-7.937,16.998-12.371,27.515-12.09c4.752-0.123,9.465,0.877,13.758,2.918  c4.545,1.946,8.655,4.781,12.09,8.338V367.964z M459,384.64c-6.003-0.203-11.793,2.235-15.842,6.67  c-4.257,4.816-6.496,11.086-6.254,17.509c-0.242,6.423,1.997,12.693,6.254,17.51c8.337,8.974,22.37,9.491,31.344,1.154  c0.259-0.24,0.511-0.485,0.757-0.737c4.324-4.942,6.565-11.367,6.254-17.927c0.242-6.423-1.997-12.693-6.254-17.509  C470.891,387.09,465.073,384.704,459,384.64L459,384.64z"/>
<path fill="#FFFFFF" d="M516.948,367.964h17.927v10.631c1.698-3.634,4.278-6.787,7.504-9.172c3.051-2.151,6.688-3.315,10.422-3.335  c2.889,0.146,5.721,0.854,8.338,2.084l-6.253,17.926c-1.8-0.977-3.792-1.546-5.837-1.667c-3.545,0.255-6.627,2.526-7.921,5.836  c-2.084,3.752-3.335,11.673-3.335,23.346v37.521h-20.428v-83.17H516.948z"/>
<path fill="#FFFFFF" d="M579.065,337.531h20.845v30.433H612v17.926h-12.09v64.619h-20.845v-65.035h-10.423v-17.51h10.423V337.531z"/>
</svg>