<svg xmlns="http://www.w3.org/2000/svg" viewBox="0 0 141.4 14.67"><defs><style>.a{fill:#014475;}.b{fill:#ffbf00;}</style></defs><title>premier-logo</title><path class="a" d="M2.69,1.12V6.28A4.8,4.8,0,0,1,4.22,5.22,4.28,4.28,0,0,1,6,4.87,4.55,4.55,0,0,1,9.43,6.4a5.58,5.58,0,0,1,1.42,3.95,5.43,5.43,0,0,1-1.47,3.88A4.63,4.63,0,0,1,5.9,15.79a4.18,4.18,0,0,1-1.67-.32,5,5,0,0,1-1.54-1v1.1H.1V1.12ZM5.43,7.27a2.71,2.71,0,0,0-2,.84,3,3,0,0,0-.82,2.2,3.09,3.09,0,0,0,.82,2.24,2.69,2.69,0,0,0,2,.85,2.63,2.63,0,0,0,2-.86,3.14,3.14,0,0,0,.82-2.22,3.06,3.06,0,0,0-.81-2.19A2.65,2.65,0,0,0,5.43,7.27Z" transform="translate(-0.1 -1.12)"/><path class="a" d="M19.71,5.13h2.6v10.4h-2.6v-1.1a5,5,0,0,1-1.54,1,4.13,4.13,0,0,1-1.66.32A4.63,4.63,0,0,1,13,14.23a5.43,5.43,0,0,1-1.47-3.88A5.58,5.58,0,0,1,13,6.4a4.54,4.54,0,0,1,3.45-1.53,4.32,4.32,0,0,1,1.76.35,4.87,4.87,0,0,1,1.52,1.06ZM17,7.27a2.62,2.62,0,0,0-2,.86,3,3,0,0,0-.8,2.19A3.13,3.13,0,0,0,15,12.54a2.62,2.62,0,0,0,2,.86,2.69,2.69,0,0,0,2-.85,3.13,3.13,0,0,0,.81-2.24A3,3,0,0,0,19,8.11,2.72,2.72,0,0,0,17,7.27Z" transform="translate(-0.1 -1.12)"/><path class="a" d="M24,5.13h2.23V6.44a2.77,2.77,0,0,1,1-1.17,2.3,2.3,0,0,1,1.32-.4,2.43,2.43,0,0,1,1.06.26l-.82,2.25A1.65,1.65,0,0,0,28,7.15a1.21,1.21,0,0,0-1,.74,6.82,6.82,0,0,0-.41,2.93v4.71H24Z" transform="translate(-0.1 -1.12)"/><path class="a" d="M39.81,7.23l-2.17,1.2a3.71,3.71,0,0,0-1.21-.89A3.54,3.54,0,0,0,35,7.29a3.3,3.3,0,0,0-2.37.87,3,3,0,0,0-.9,2.24,2.89,2.89,0,0,0,.87,2.17,3.15,3.15,0,0,0,2.29.83,3.31,3.31,0,0,0,2.72-1.19l2.06,1.41A5.61,5.61,0,0,1,35,15.79a5.65,5.65,0,0,1-4.29-1.62,5.43,5.43,0,0,1-.8-6.58,5.29,5.29,0,0,1,2.11-2,6.3,6.3,0,0,1,3-.72,6.14,6.14,0,0,1,2.78.61A5.31,5.31,0,0,1,39.81,7.23Z" transform="translate(-0.1 -1.12)"/><path class="a" d="M40.8,1.12h2.59V6.18a5.89,5.89,0,0,1,1.54-1,4.16,4.16,0,0,1,1.57-.32,3.48,3.48,0,0,1,2.6,1.07A3.69,3.69,0,0,1,50,8.66v6.87H47.44V11a11.7,11.7,0,0,0-.17-2.45,1.73,1.73,0,0,0-.59-.95,1.63,1.63,0,0,0-1-.32,1.92,1.92,0,0,0-1.36.53,2.74,2.74,0,0,0-.79,1.43,11.36,11.36,0,0,0-.12,2.14v4.18H40.8Z" transform="translate(-0.1 -1.12)"/><path class="a" d="M59,5.13h2.61v10.4H59v-1.1a5.13,5.13,0,0,1-1.53,1,4.18,4.18,0,0,1-1.67.32,4.63,4.63,0,0,1-3.48-1.56,5.43,5.43,0,0,1-1.47-3.88A5.58,5.58,0,0,1,52.3,6.4a4.55,4.55,0,0,1,3.46-1.53,4.31,4.31,0,0,1,1.75.35A4.76,4.76,0,0,1,59,6.28ZM56.29,7.27a2.63,2.63,0,0,0-2,.86,3.09,3.09,0,0,0-.8,2.19,3.13,3.13,0,0,0,.81,2.22,2.64,2.64,0,0,0,2,.86,2.69,2.69,0,0,0,2-.85,3.17,3.17,0,0,0,.8-2.24,3.08,3.08,0,0,0-.8-2.2A2.74,2.74,0,0,0,56.29,7.27Z" transform="translate(-0.1 -1.12)"/><path class="a" d="M63.27,5.13h2.24V6.44a2.75,2.75,0,0,1,1-1.17,2.3,2.3,0,0,1,1.32-.4,2.39,2.39,0,0,1,1.06.26L68,7.38a1.72,1.72,0,0,0-.76-.23,1.21,1.21,0,0,0-1,.74,7,7,0,0,0-.41,2.93v4.71H63.27Z" transform="translate(-0.1 -1.12)"/><path class="a" d="M70.84,1.3h2.61V5.13H75V7.38H73.45v8.15H70.84V7.38H69.51V5.13h1.33Z" transform="translate(-0.1 -1.12)"/><path class="b" d="M76.72,1.87h2.75a9.25,9.25,0,0,1,3.23.41,3.31,3.31,0,0,1,1.55,1.34,4.11,4.11,0,0,1,.57,2.21,3.72,3.72,0,0,1-.74,2.38,3.85,3.85,0,0,1-2,1.31,11.13,11.13,0,0,1-2.74.22v5.78H76.72ZM79.31,7.2h.83a4.19,4.19,0,0,0,1.35-.14,1.11,1.11,0,0,0,.6-.46,1.29,1.29,0,0,0,.22-.77,1.25,1.25,0,0,0-.61-1.16,3.5,3.5,0,0,0-1.65-.27h-.74Z" transform="translate(-0.1 -1.12)"/><path class="b" d="M85.92,5.42H88.1V6.69A2.66,2.66,0,0,1,89,5.55a2.27,2.27,0,0,1,1.28-.39,2.41,2.41,0,0,1,1,.26L90.55,7.6a1.83,1.83,0,0,0-.73-.22,1.16,1.16,0,0,0-1,.72,6.65,6.65,0,0,0-.4,2.84v4.58H85.92Z" transform="translate(-0.1 -1.12)"/><path class="b" d="M101.76,11.2H93.62a2.7,2.7,0,0,0,.94,1.71,2.93,2.93,0,0,0,2,.64,3.39,3.39,0,0,0,2.44-1l2.13,1a5,5,0,0,1-1.91,1.67,5.87,5.87,0,0,1-2.64.55,5.21,5.21,0,0,1-3.87-1.5,5.09,5.09,0,0,1-1.5-3.75,5.3,5.3,0,0,1,1.49-3.84,5,5,0,0,1,3.73-1.53,5.17,5.17,0,0,1,3.88,1.53,5.5,5.5,0,0,1,1.5,4Zm-2.54-2a2.46,2.46,0,0,0-1-1.37,2.8,2.8,0,0,0-1.71-.53,3,3,0,0,0-1.86.59,3.39,3.39,0,0,0-.93,1.31Z" transform="translate(-0.1 -1.12)"/><path class="b" d="M102.84,5.42h2.53V6.58a4.3,4.3,0,0,1,1.45-1.06,4.09,4.09,0,0,1,1.73-.36,3.17,3.17,0,0,1,1.7.47A3.37,3.37,0,0,1,111.48,7,4.14,4.14,0,0,1,113,5.63a4.07,4.07,0,0,1,1.92-.47,3.55,3.55,0,0,1,1.89.5A2.91,2.91,0,0,1,118,7a7.24,7.24,0,0,1,.35,2.63v5.92h-2.55V10.4a4.46,4.46,0,0,0-.42-2.33,1.48,1.48,0,0,0-1.28-.61,1.93,1.93,0,0,0-1.17.38,2.09,2.09,0,0,0-.76,1,6.32,6.32,0,0,0-.25,2.1v4.56h-2.56V10.63a6.62,6.62,0,0,0-.2-2,1.74,1.74,0,0,0-.6-.91,1.53,1.53,0,0,0-1-.3,1.91,1.91,0,0,0-1.15.38,2.19,2.19,0,0,0-.77,1.05,6.54,6.54,0,0,0-.26,2.14v4.49h-2.53Z" transform="translate(-0.1 -1.12)"/><path class="b" d="M121.51,1.27a1.56,1.56,0,0,1,1.15.48,1.62,1.62,0,0,1,.47,1.17,1.55,1.55,0,0,1-.47,1.15,1.52,1.52,0,0,1-1.13.48,1.54,1.54,0,0,1-1.15-.49,1.6,1.6,0,0,1-.48-1.18,1.56,1.56,0,0,1,.48-1.14A1.51,1.51,0,0,1,121.51,1.27Zm-1.26,4.15h2.53v10.1h-2.53Z" transform="translate(-0.1 -1.12)"/><path class="b" d="M134.81,11.2h-8.13a2.65,2.65,0,0,0,.94,1.71,2.92,2.92,0,0,0,1.95.64,3.37,3.37,0,0,0,2.44-1l2.14,1a5.07,5.07,0,0,1-1.92,1.67,5.84,5.84,0,0,1-2.64.55,5.24,5.24,0,0,1-3.87-1.5,5.12,5.12,0,0,1-1.49-3.75,5.26,5.26,0,0,1,1.49-3.84,5,5,0,0,1,3.73-1.53,5.19,5.19,0,0,1,3.88,1.53,5.5,5.5,0,0,1,1.49,4Zm-2.53-2a2.56,2.56,0,0,0-1-1.37,2.8,2.8,0,0,0-1.71-.53,3,3,0,0,0-1.86.59,3.2,3.2,0,0,0-.93,1.31Z" transform="translate(-0.1 -1.12)"/><path class="b" d="M136.08,5.42h2.17V6.69a2.76,2.76,0,0,1,.94-1.14,2.25,2.25,0,0,1,1.28-.39,2.45,2.45,0,0,1,1,.26l-.79,2.18a1.88,1.88,0,0,0-.73-.22,1.16,1.16,0,0,0-1,.72,6.61,6.61,0,0,0-.41,2.84v4.58h-2.51Z" transform="translate(-0.1 -1.12)"/></svg>